<?xml version="1.0" encoding="utf-8"?>
<!-- Generator: Adobe Illustrator 24.0.1, SVG Export Plug-In . SVG Version: 6.00 Build 0)  -->
<svg version="1.1" id="Capa_1" xmlns="http://www.w3.org/2000/svg" xmlns:xlink="http://www.w3.org/1999/xlink" x="0px" y="0px"
	 viewBox="0 0 228 228" style="enable-background:new 0 0 228 228;" xml:space="preserve">
<style type="text/css">
	.st0{stroke:#000000;stroke-miterlimit:10;}
	.st1{fill:none;}
</style>
<g>
	<path d="M228,113.8c-1-0.7-2-1.3-3-2c-3-2-5.9-4.1-8.8-6.1c-2.2-1.5-4.4-3.1-6.7-4.7c-5.7-3.9-10.7-6.4-15.6-8
		c-3.1-0.9-6.1-1.4-9-1.4c-4.1,0-8.2,1-12.1,2.9c-5.5,2.7-9.9,6.8-13.2,10c-3,3-5.9,6.1-8.8,9.1c-2.1,2.3-4.3,4.6-6.5,6.8
		c-3.3,3.4-6.5,5.8-9.9,7.4c-2.2,1.1-4.5,1.6-6.6,1.6c-2.4,0-4.7-0.7-6.9-2c-3.9-2.4-6.6-6.1-9-9.7c-1.5-2.3-3-4.9-4.5-7.6
		c-2.7-5-5.3-10.1-7.8-14.9c-2-4-4.4-7.7-7.1-11.4C88.7,78.6,85,74.9,80.8,72c-3.3-2.2-6.9-4.4-10.3-6.4c-1.1-0.6-2.1-1.2-3.1-1.8
		c-0.1,0-1.9-0.4-2.2,0.1c-0.2,0.5,1,1.5,1.3,1.7c5.5,3,10.1,5.7,14.3,9.1c4.7,3.7,8.9,8.3,12.3,13.6c2.1,3.3,4.1,6.8,5.9,10.2
		c0.5,1,1,1.9,1.5,2.8c0.9,1.5,1.7,3.1,2.5,4.7s1.6,3.2,2.5,4.8c1.4,2.5,2.9,5,4.3,7.4l0.7,1.2c2,3.4,4.5,6.2,7.3,8.4
		c3.1,2.5,6.5,3.7,10,3.7c1.7,0,3.4-0.3,5.2-1.1c5.5-1.7,9.7-5.4,13.5-9.1c3.2-3.1,6.3-6.4,9.3-9.6c1.3-1.4,2.6-2.7,3.9-4.1
		c3.1-3.3,6.9-7,11.6-10c4.3-2.8,9-4.2,13.7-4.2c2.8,0,5.7,0.5,8.7,1.5c5.6,1.8,10.5,4.9,14.7,7.7c4.1,2.8,8.3,5.8,12.3,8.6
		c1.1,0.7,2.1,1.5,3.2,2.2c1.3,0.9,2.7,1.8,4.1,2.7V113.8z"/>
	<g>
		<path d="M40.3,139.3c0.4-0.3,0.6-0.8,0.7-1.3c1-3.6,2.2-7.2,3.3-10.7l1-3.2c0.2-0.7,0.4-1.4,0.7-2.2c0.3-1,0.6-2,0.9-3
			c0.4-1.2,0.7-2.4,1-3.5c0.4-1.5,0.9-3,1.4-4.6c1.1-3.7,2.2-7.3,3.4-10.9l2.5-8c0.7-2.2,1.4-4.5,2.1-6.7c1.3-4.4,2.5-8.8,3.7-13.1
			l0.1-0.3c0.1-0.4,0.2-0.7,0.2-1.1c0.1-0.4,0.1-0.7,0.2-1.1c0.3-1,0.5-1.9,0.8-2.9c0.8-2.9,1.6-5.8,2.6-8.6
			c0.4-1.2,1.5-2.4,2.8-3.1c0.4-0.3,0.9-0.4,1.2-0.4c0.4,0,0.7,0.1,0.9,0.4c0.3,0.4,0.5,1,0.5,1.7c-0.1,1.5-0.4,3-0.6,4.6
			c-0.1,0.6-0.2,1.3-0.3,1.9l-1.1-0.5c0.1-0.4,0.2-0.8,0.3-1.2c0.3-1.2,0.6-2.3,0.8-3.4c0.1-0.6,0.1-1.6-0.6-1.8
			c-0.1,0-0.2-0.1-0.3-0.1c-0.6,0-1.3,0.6-1.5,1.1c-0.7,1.5-1.4,3.1-2,4.9c-0.2,0.7-0.4,1.3-0.5,2c-0.1,0.4-0.2,0.9-0.3,1.3
			c-0.2,0.5-0.2,0.9,0,1.2c0.3,0.4,0.8,0.4,1.1,0.4c0,0,0.5,0,0.6,0c0.6,0,0.9,0.1,1,0.2c0.2,0.3-0.1,0.9-0.3,1.4
			c-0.5,1.4-1.1,2.8-1.7,4.1c-1.1,2.8-2.3,5.8-3.4,8.7c-1.5,4-3,8.1-4.5,12.1l-0.5,1.3c-1.4,3.9-2.8,7.9-4.2,11.8
			c0,0-2.1,5.9-2.7,7.8c-1,2.7-1.9,5.5-2.9,8.2c-1.6,4.6-3.3,9.1-4.9,13.7c-0.2,0.5-0.4,1.1-0.7,1.7c-0.1,0.3-0.3,0.6-0.5,1
			l-0.1,0.2L40.3,139.3z"/>
		<path d="M68.9,54.9L68.9,54.9c0.3,0,0.5,0.1,0.7,0.3c0.3,0.3,0.4,0.8,0.4,1.5c-0.1,1.5-0.4,3-0.6,4.5c-0.1,0.5-0.2,1.1-0.3,1.6
			l-0.4-0.2l-0.2-0.1c0.1-0.3,0.2-0.6,0.2-1c0.3-1.2,0.6-2.3,0.8-3.4c0.1-0.8,0-1.8-0.7-2.1c-0.1,0-0.3-0.1-0.4-0.1
			c-0.8,0-1.5,0.7-1.7,1.3c-0.7,1.5-1.4,3.1-2,4.9c-0.2,0.7-0.4,1.4-0.5,2c-0.1,0.4-0.2,0.9-0.3,1.3c-0.2,0.6-0.1,1.1,0.2,1.4
			c0.4,0.5,1.1,0.5,1.3,0.5c0.1,0,0.1,0,0.2,0s0.3,0,0.4,0c0.7,0,0.8,0.1,0.8,0.1s0.1,0.2-0.3,1.2c-0.6,1.4-1.1,2.8-1.7,4.1
			c-1.1,2.8-2.3,5.8-3.4,8.7c-1.5,4-3,8.1-4.4,12.1l-0.5,1.3c-1.4,3.9-2.8,7.9-4.2,11.8l-0.8,2.2c-0.7,1.9-1.3,3.8-2,5.7
			c-1,2.7-1.9,5.4-2.9,8.2c-1.3,3.6-2.6,7.2-4,11.1c0.6-2.1,1.3-4.3,2-6.4c0.3-1.1,0.7-2.1,1-3.2c0.2-0.7,0.5-1.5,0.7-2.2
			c0.3-1,0.6-2,0.9-3c0.4-1.2,0.7-2.4,1-3.5c0.4-1.5,0.9-3,1.4-4.6c1.1-3.6,2.2-7.2,3.3-10.9l1.7-5.4c0.3-0.9,0.6-1.8,0.8-2.7
			c0.7-2.2,1.4-4.5,2.1-6.8c1.3-4.3,2.5-8.7,3.7-13l0.1-0.4c0.1-0.4,0.2-0.8,0.2-1.1c0.1-0.4,0.1-0.7,0.2-1c0.3-1,0.5-1.9,0.8-2.9
			c0.8-2.8,1.6-5.8,2.6-8.6c0.4-1.1,1.5-2.3,2.7-3C68.2,55,68.6,54.9,68.9,54.9 M68.9,54.4c-0.4,0-0.9,0.1-1.3,0.4
			c-1.2,0.7-2.4,2-2.9,3.2c-1.3,3.8-2.3,7.7-3.4,11.5C61,70.3,61,71,60.8,71.7c-1.3,4.5-2.5,8.9-3.8,13.4c-0.9,3.2-1.9,6.3-2.9,9.4
			c-1.7,5.4-3.4,10.8-5,16.2c-0.8,2.7-1.6,5.4-2.4,8.1c-0.5,1.7-1.1,3.4-1.6,5.1c-1.4,4.6-2.9,9.2-4.2,13.9
			c-0.3,0.9-0.5,1.4-1.5,1.4s-2,0.2-3.1,0.3c0,0.1,0,0.2,0,0.3c7.7-0.7,15.4-1.4,23.1-2.1c0-0.1,0-0.2,0-0.3c-6,0.6-12,1.1-18.4,1.7
			c0.5-1.1,0.9-1.9,1.2-2.7c1.7-4.5,3.3-9.1,4.9-13.7c1.6-4.6,3.3-9.2,4.9-13.8c1.7-4.7,3.3-9.3,5-13.9c1.6-4.5,3.2-8.9,4.9-13.4
			c1.6-4.3,3.4-8.5,5.1-12.8c0.6-1.5,0.4-2-1-2c-0.1,0-0.3,0-0.4,0s-0.1,0-0.2,0c-0.8,0-1.2-0.3-1-1.3c0.3-1.1,0.4-2.2,0.7-3.3
			c0.6-1.6,1.2-3.3,2-4.8c0.2-0.4,0.8-1,1.3-1c0.1,0,0.1,0,0.2,0c0.5,0.2,0.5,1.1,0.4,1.5c-0.3,1.6-0.7,3.1-1.1,4.7
			c0.3,0.1,0.7,0.3,1.6,0.7c0.4-2.5,0.9-4.7,1-6.9C70.6,55.2,69.9,54.4,68.9,54.4L68.9,54.4z"/>
	</g>
	<path d="M61,63.9c-0.9-0.3-1.8-0.7-2.7-1c-2-0.7-4.1-1.5-6.1-2.4c-4.5-2.2-8.5-4.3-12.2-6.5c-3.2-2-5.6-4.3-7.1-7
		c-1.1-2.1-1.4-3.9-0.9-5.6c0.6-1.7,2-3.1,4.2-4.2c2.1-1,4.2-1.5,6.3-1.5c2.8,0,5.6,0.9,8.3,2.6c3.5,2.3,6.5,5.3,9.2,8.2
		c0.2,0.2,0.4,0.5,0.7,0.7l0.5,0.5c0,0,0,1-0.2,1.1c-0.1,0-0.4-0.1-0.4-0.1c-0.1,0-0.3-0.1-0.5-0.1c-0.4-0.1-0.9-0.1-1.2-0.4
		c-1-0.9-2-1.9-3-2.8c-1.1-1.1-2.3-2.2-3.5-3.2c-3.3-2.9-6.5-4.3-9.8-4.3c-1.1,0-2.2,0.2-3.4,0.5c-2,0.5-3.4,1.5-4.4,2.8
		c-1,1.5-0.3,4.6,1,6.1c5.5,6.3,12.8,9.6,19.9,12.4c0.9,0.4,1.8,0.7,2.7,1c0.7,0.3,1.5,0.5,2.2,0.8c1.3,0.5,1.3,0.7,0.9,2.2L61.3,64
		L61,63.9z"/>
	<g>
		<g>
			<path d="M72,158.9l-0.9,5.5h-1.8l3-16.7h2.5l3.1,16.7h-1.8l-1-5.5H72z M75,157.5c-0.7-3.9-1.2-6.7-1.3-8.2h-0.1
				c-0.1,1.3-0.7,5.1-1.3,8.2H75z"/>
			<path d="M81.4,156.6v7.9h-1.7v-16.7h3c2.7,0,4,1.1,4,3.8v0.8c0,2.2-0.8,3.2-1.9,3.5c1.2,0.4,1.7,1.2,1.7,3.4c0,1.4,0,4.1,0.2,5.1
				H85c-0.2-1-0.2-3.9-0.2-5c0-2.2-0.3-2.8-2.2-2.8H81.4z M81.4,155.2h1.3c1.8,0,2.2-1,2.2-2.8v-0.8c0-1.6-0.5-2.5-2.4-2.5h-1.2
				L81.4,155.2L81.4,155.2z"/>
			<path d="M90.7,156.6v7.9H89v-16.7h3c2.7,0,4,1.1,4,3.8v0.8c0,2.2-0.8,3.2-1.9,3.5c1.2,0.4,1.7,1.2,1.7,3.4c0,1.4,0,4.1,0.2,5.1
				h-1.7c-0.2-1-0.2-3.9-0.2-5c0-2.2-0.3-2.8-2.2-2.8H90.7z M90.7,155.2H92c1.8,0,2.2-1,2.2-2.8v-0.8c0-1.6-0.5-2.5-2.4-2.5h-1.2
				L90.7,155.2L90.7,155.2z"/>
			<path d="M104.1,156.3H100v6.7h4.7l-0.2,1.5h-6.2v-16.7h6.1v1.5H100v5.6h4.1V156.3z"/>
			<path d="M113.4,164.4H112c0-0.3-0.1-1.1-0.1-1.5c-0.4,1.3-1.5,1.7-2.7,1.7c-2.5,0-3.3-1.7-3.3-4.3v-8.5c0-2.7,1.2-4.3,3.8-4.3
				c3,0,3.7,1.9,3.7,4.1v0.4h-1.7v-0.4c0-1.2-0.2-2.7-1.9-2.7c-1.3,0-2,0.8-2,2.8v8.6c0,1.7,0.5,2.8,1.9,2.8c1.8,0,2.1-1.5,2.1-3.8
				v-2.7h-2.1v-1.4h3.9v9.2H113.4z"/>
			<path d="M115.9,147.8h1.7V163h4.6l-0.2,1.4h-6.1V147.8z"/>
			<path d="M130.8,151.8v8.5c0,2.9-1.3,4.3-3.9,4.3c-2.8,0-3.8-1.7-3.8-4.3v-8.6c0-2.7,1.3-4.2,3.9-4.2
				C129.7,147.6,130.8,149.3,130.8,151.8z M124.9,151.7v8.7c0,2,0.8,2.8,2.1,2.8c1.3,0,2.1-0.8,2.1-2.8v-8.6c0-1.9-0.7-2.8-2.1-2.8
				C125.6,149,124.9,149.8,124.9,151.7z"/>
			<path d="M133.9,159.8v1c0,1.6,0.6,2.5,2,2.5s1.9-0.8,1.9-2.8s-0.5-2.8-2.4-4.2c-2-1.4-2.9-2.2-2.9-4.7c0-2.1,0.7-4.1,3.4-4.1
				c2.6,0,3.3,1.5,3.3,3.7v0.7h-1.7v-0.7c0-1.4-0.3-2.4-1.6-2.4s-1.7,1.1-1.7,2.4c0,1.6,0.4,2.2,2.1,3.4c2.5,1.7,3.3,2.7,3.3,5.4
				c0,2.3-0.7,4.4-3.7,4.4c-2.8,0-3.7-1.7-3.7-3.9v-0.9h1.7V159.8z"/>
			<path d="M158.6,154.3l-2.7,6.7c-1,2.5-2.2,3.6-4.1,3.6c-2.5,0-3.4-1.9-3.4-4.3c0-2.7,1-3.7,3.2-5.4c1.7-1.3,2.1-2.1,2.1-3.9
				c0-1.2-0.2-2.1-1.3-2.1c-1,0-1.3,0.9-1.3,2.1c0,1.6,0.1,2.2,1.1,3.7l6.2,9.6h-2l-5.5-8.5c-1.1-1.7-1.5-2.7-1.5-4.7
				c0-2.1,0.9-3.6,3-3.6s2.9,1.3,2.9,3.4c0,2.4-0.7,3.4-2.9,5.1c-1.8,1.4-2.2,2.2-2.2,4.2c0,1.9,0.6,2.9,1.9,2.9
				c1.1,0,1.7-0.7,2.4-2.4l2.5-6.3h1.6V154.3z"/>
			<path d="M41.5,188.9l-0.9,5.5h-1.8l3-16.7h2.5l3.1,16.7h-1.8l-1-5.5H41.5z M44.4,187.4c-0.7-3.9-1.2-6.7-1.3-8.2H43
				c-0.1,1.3-0.7,5.1-1.3,8.2H44.4z"/>
			<path d="M49.2,177.7h1.7V193h4.6l-0.2,1.4h-6.1V177.7z"/>
			<path d="M64.1,181.7v8.5c0,2.9-1.3,4.3-3.9,4.3c-2.8,0-3.8-1.7-3.8-4.3v-8.6c0-2.7,1.3-4.2,3.9-4.2
				C63,177.5,64.1,179.2,64.1,181.7z M58.2,181.7v8.7c0,2,0.8,2.8,2.1,2.8s2.1-0.8,2.1-2.8v-8.6c0-1.9-0.7-2.8-2.1-2.8
				C58.8,179,58.2,179.8,58.2,181.7z M62.8,193.4l2.5,1.8l-1.1,1.1l-2.8-2L62.8,193.4z"/>
			<path d="M68.1,177.7v13c0,1.4,0.6,2.4,2,2.4c1.5,0,2-0.9,2-2.4v-13h1.8v13c0,2.6-1.3,3.9-3.8,3.9c-2.4,0-3.7-1.3-3.7-3.9v-13
				H68.1z"/>
			<path d="M78.2,177.7v16.7h-1.7v-16.7H78.2z"/>
			<path d="M81,177.7h1.7V193h4.6l-0.2,1.4H81V177.7z"/>
			<path d="M94.5,186.2h-4.1v6.7H95l-0.2,1.5h-6.2v-16.7h6.1v1.5h-4.4v5.6h4.1L94.5,186.2L94.5,186.2z"/>
			<path d="M98.4,186.5v7.9h-1.7v-16.7h3c2.7,0,4,1.1,4,3.8v0.8c0,2.2-0.8,3.2-1.9,3.5c1.2,0.4,1.7,1.2,1.7,3.4c0,1.4,0,4.1,0.2,5.1
				H102c-0.2-1-0.2-3.9-0.2-5c0-2.2-0.3-2.8-2.2-2.8H98.4z M98.4,185.2h1.3c1.8,0,2.2-1,2.2-2.8v-0.8c0-1.6-0.5-2.5-2.4-2.5h-1.2
				L98.4,185.2L98.4,185.2z"/>
			<path d="M116.5,189.7v0.5c0,2.2-0.4,4.4-3.6,4.4c-3.1,0-3.6-2.1-3.6-4.5v-8.5c0-2.7,1.2-4.1,3.6-4.1c3,0,3.5,2,3.5,4.1v0.6h-1.8
				v-0.7c0-1.4-0.2-2.6-1.8-2.6c-1.5,0-1.8,1.1-1.8,2.6v8.6c0,1.8,0.4,3,1.9,3s1.8-1.2,1.8-2.9v-0.6L116.5,189.7L116.5,189.7z"/>
			<path d="M124.3,186.2h-4.1v6.7h4.7l-0.2,1.5h-6.2v-16.7h6.1v1.5h-4.4v5.6h4.1V186.2z"/>
			<path d="M128.2,186.5v7.9h-1.7v-16.7h3c2.7,0,4,1.1,4,3.8v0.8c0,2.2-0.8,3.2-1.9,3.5c1.2,0.4,1.7,1.2,1.7,3.4
				c0,1.4,0,4.1,0.2,5.1h-1.7c-0.2-1-0.2-3.9-0.2-5c0-2.2-0.3-2.8-2.2-2.8H128.2z M128.2,185.2h1.3c1.8,0,2.2-1,2.2-2.8v-0.8
				c0-1.6-0.5-2.5-2.4-2.5h-1.2L128.2,185.2L128.2,185.2z"/>
			<path d="M141.6,186.2h-4.1v6.7h4.7l-0.2,1.5h-6.2v-16.7h6.1v1.5h-4.4v5.6h4.1L141.6,186.2L141.6,186.2z"/>
			<path d="M152.6,187.3c0-3.1,0.1-6.3,0.1-8.1l0,0c-0.5,2.8-1.9,10.3-3,15.2H148c-0.8-4.3-2.3-12.3-2.8-15.2h-0.1
				c0.1,1.9,0.2,5.7,0.2,8.6v6.7h-1.6v-16.7h2.6c1.1,5.1,2.4,11.5,2.6,13.6l0,0c0.3-2,1.8-8.8,2.8-13.6h2.5v16.7h-1.7v-7.2H152.6z"
				/>
			<path d="M164.3,181.7v8.5c0,2.9-1.3,4.3-3.9,4.3c-2.8,0-3.8-1.7-3.8-4.3v-8.6c0-2.7,1.3-4.2,3.9-4.2
				C163.2,177.5,164.3,179.2,164.3,181.7z M158.4,181.7v8.7c0,2,0.8,2.8,2.1,2.8s2.1-0.8,2.1-2.8v-8.6c0-1.9-0.7-2.8-2.1-2.8
				C159.1,179,158.4,179.8,158.4,181.7z"/>
			<path d="M166.7,194.4v-16.7h2.1c1,3.3,3.7,12.1,4,13.6l0,0c-0.1-2.3-0.1-4.6-0.1-7.3v-6.2h1.7v16.7h-2
				c-1.1-3.4-3.7-12.6-4.1-14.1l0,0c0.1,2,0.2,4.8,0.2,7.8v6.3h-1.8V194.4z"/>
			<path d="M178.8,177.7v16.7h-1.7v-16.7H178.8z"/>
			<path d="M183.2,188.9l-0.9,5.5h-1.8l3-16.7h2.5l3.1,16.7h-1.8l-1-5.5H183.2z M186.1,187.4c-0.7-3.9-1.2-6.7-1.3-8.2h-0.1
				c-0.1,1.3-0.7,5.1-1.3,8.2H186.1z"/>
		</g>
	</g>
	<g>
		<path class="st0" d="M138.5,79.7l-3.2,0.7l5.2-28.1l0.2-1c0.1-0.7,0.2-1.1,0.1-1.4c0-0.3-0.2-0.6-0.4-0.8s-0.6-0.2-1-0.1
			c-0.6,0.1-1.3,0.6-2.1,1.4c-0.7,0.8-1.7,2-2.7,3.7c-1.7,2.6-3.5,6-5.4,10.3c-1.5,3.4-2.7,6.6-3.7,9.7s-1.8,6.1-2.4,9.1l-2.8,0.6
			l5.8-30.3c0.2-0.9,0.3-1.7,0.2-2.2c0-0.2-0.1-0.4-0.2-0.6c-0.1-0.2-0.3-0.3-0.5-0.4c-0.2-0.1-0.4-0.1-0.7,0
			c-1.1,0.2-2.3,1.3-3.7,3.3c-1.4,1.9-3,4.8-4.9,8.7c-0.9,1.7-1.7,3.6-2.5,5.4c-0.8,1.9-1.5,3.6-2.1,5.2s-1.3,3.5-2.1,5.8
			c-1.1,3.3-1.9,6-2.3,8l-2.8,0.6l0.1-0.4l1.1-4.8c0.4-1.8,0.7-3.5,1-4.9c1.3-6.7,2.3-12.1,2.8-16.2c0.5-3.3,0.7-5.6,0.6-7
			c-0.1-1-0.3-1.8-0.8-2.2c-0.4-0.5-1-0.6-1.7-0.5c-1.7,0.4-3.1,2.5-4.2,6.3c-0.7,2.4-1.1,5-1.4,7.6l-2.6-0.7
			c0.2-2.3,0.7-4.5,1.5-6.5s1.7-3.7,2.9-5c1.1-1.3,2.3-2.1,3.6-2.4c1.4-0.3,2.6,0,3.5,1s1.4,2.5,1.6,4.6c0.1,1.7,0.1,3.7-0.2,6
			c-0.1,0.7-0.3,2.4-0.7,5.2l-0.9,6l0.2-0.5c1.4-3.8,3.4-8.4,6.2-13.7c1.7-3.3,3.4-5.9,4.9-7.8c1.5-1.9,3-2.9,4.3-3.2
			c0.9-0.2,1.6-0.1,2.2,0.3c0.6,0.4,0.9,1,1,1.8s-0.1,2.1-0.4,3.7l-2.9,15.4c0.2-0.7,0.8-2.1,1.8-4.2c2.7-6,5.1-10.4,7.1-13.3
			c2-2.8,3.9-4.5,5.8-4.9c0.9-0.2,1.7-0.1,2.3,0.3c0.6,0.4,0.9,1,1,1.8c0,0.7-0.1,1.7-0.4,3.1L138.5,79.7z"/>
		<path class="st0" d="M184,67.4l-1.3,2.9c-0.6,0.2-1.2,0.4-1.7,0.5c-1,0.2-2.3,0.4-4,0.6c-1.2,0.1-2.4,0.2-3.7,0.2
			c-1.2,0-2.8,0-4.7,0c-1.6,0-3.1,0-4.7,0c-1.3,1.3-2.9,2.5-4.7,3.5s-3.7,1.7-5.6,2.1c-2.2,0.5-4,0.6-5.4,0.3c-1.4-0.3-2.1-1-2.2-2
			c-0.1-1.1,0.6-2.1,2.1-3.1s3.5-1.7,6-2.3c2.9-0.7,6.2-1,9.9-1c0.6-1.1,1.1-2.1,1.4-3.2c0.3-1.1,0.7-2.6,1-4.5l1.8-9.3
			c0.5-2.7,1-4.8,1.5-6.4c0.5-1.6,1.1-2.9,1.8-4.1c0.7-1.1,1.5-2.2,2.4-3.2s1.9-1.8,2.9-2.4c1-0.6,2-1.1,3-1.3c1.1-0.2,2-0.3,2.9,0
			c0.8,0.2,1.5,0.6,2,1.3s0.7,1.5,0.8,2.4s-0.1,2.1-0.4,3.5c-0.3,1.5-0.8,2.8-1.4,4.2l-3.1,1.1c0.8-1.6,1.5-3.2,2-5
			c0.5-1.7,0.7-3.1,0.7-4.2c-0.1-1-0.4-1.8-1-2.2s-1.4-0.5-2.5-0.3c-2.3,0.5-4.2,2.1-5.5,4.9c-0.4,0.9-0.8,1.8-1,2.6
			c-0.3,0.9-0.6,2.3-1,4.2L170,58.7c-0.5,2.5-1,4.5-1.6,6.1c-0.6,1.5-1.4,3-2.4,4.3h0.9c3.4,0.1,6.2,0.1,8.3,0s3.9-0.3,5.4-0.6
			C181.6,68.2,182.7,67.8,184,67.4z M162.4,71.4h-0.8c-4.1,0-7.2,0.2-9.3,0.7c-3.4,0.8-5,1.8-4.9,3.2c0,0.7,0.7,1.2,1.9,1.4
			c1.2,0.2,2.7,0.1,4.5-0.3c1.7-0.4,3.3-1,4.9-1.9C160,73.6,161.3,72.5,162.4,71.4z"/>
	</g>
	<circle class="st1" cx="114" cy="114" r="114"/>
</g>
</svg>
