<?xml version="1.0" encoding="utf-8"?>
<!-- Generator: Adobe Illustrator 24.0.1, SVG Export Plug-In . SVG Version: 6.00 Build 0)  -->
<svg version="1.1" xmlns="http://www.w3.org/2000/svg" xmlns:xlink="http://www.w3.org/1999/xlink" x="0px" y="0px"
	 viewBox="0 0 15 15" style="enable-background:new 0 0 15 15;" xml:space="preserve">
<style type="text/css">
	.st0{fill:#FFFFFF;}
</style>
<g id="Capa_1">
	<g id="Capa_1_2_">
		<g id="Capa_1_1_">
		</g>
	</g>
</g>
<g id="Modo_de_aislamiento">
	<g>
		<g>
			<g>
				<path class="st0" d="M11.5,2.7c-0.5,0-0.9,0.4-0.9,0.9c0,0.5,0.4,0.9,0.9,0.9c0.5,0,0.9-0.4,0.9-0.9C12.4,3.1,12,2.7,11.5,2.7z"
					/>
				<path class="st0" d="M7.6,3.8c-2,0-3.7,1.6-3.7,3.7c0,2,1.6,3.7,3.7,3.7c2,0,3.7-1.6,3.7-3.7C11.3,5.5,9.6,3.8,7.6,3.8z
					 M7.6,9.9c-1.3,0-2.4-1.1-2.4-2.4s1.1-2.4,2.4-2.4c1.3,0,2.4,1.1,2.4,2.4S8.9,9.9,7.6,9.9z"/>
				<path class="st0" d="M10.5,15l-6,0C2,15,0,12.9,0,10.5l0-6C0,2,2.1,0,4.5,0l6,0C13,0,15,2.1,15,4.5l0,6C15,13,12.9,15,10.5,15z
					 M4.5,1.4c-1.7,0-3.1,1.4-3.1,3.1l0,6c0,1.7,1.4,3.1,3.1,3.1l6,0c1.7,0,3.1-1.4,3.1-3.1l0-6c0-1.7-1.4-3.1-3.1-3.1L4.5,1.4z"/>
			</g>
		</g>
	</g>
</g>
</svg>
