<?xml version="1.0" encoding="utf-8"?>
<!-- Generator: Adobe Illustrator 24.0.1, SVG Export Plug-In . SVG Version: 6.00 Build 0)  -->
<!DOCTYPE svg PUBLIC "-//W3C//DTD SVG 1.1//EN" "http://www.w3.org/Graphics/SVG/1.1/DTD/svg11.dtd" [
	<!ENTITY st0 "fill:#273840;">
]>
<svg version="1.1" id="Capa_1" xmlns="http://www.w3.org/2000/svg" xmlns:xlink="http://www.w3.org/1999/xlink" x="0px" y="0px"
	 viewBox="0 0 15 15" style="enable-background:new 0 0 15 15;" xml:space="preserve">
<g id="Capa_1_3_">
	<g id="Capa_1_2_">
		<g id="Capa_1_1_">
		</g>
	</g>
</g>
<g id="Modo_de_aislamiento">
	<g>
		<g>
			<g>
				<path style="&st0;" d="M11.5,2.7c-0.5,0-0.9,0.4-0.9,0.9s0.4,0.9,0.9,0.9s0.9-0.4,0.9-0.9S12,2.7,11.5,2.7z"/>
				<path style="&st0;" d="M7.6,3.8c-2,0-3.7,1.6-3.7,3.7c0,2,1.6,3.7,3.7,3.7c2,0,3.7-1.6,3.7-3.7C11.3,5.5,9.6,3.8,7.6,3.8z
					 M7.6,9.9c-1.3,0-2.4-1.1-2.4-2.4s1.1-2.4,2.4-2.4S10,6.2,10,7.5S8.9,9.9,7.6,9.9z"/>
				<path style="&st0;" d="M10.5,15h-6C2,15,0,12.9,0,10.5v-6C0,2,2.1,0,4.5,0h6C13,0,15,2.1,15,4.5v6C15,13,12.9,15,10.5,15z
					 M4.5,1.4c-1.7,0-3.1,1.4-3.1,3.1v6c0,1.7,1.4,3.1,3.1,3.1h6c1.7,0,3.1-1.4,3.1-3.1v-6c0-1.7-1.4-3.1-3.1-3.1L4.5,1.4z"/>
			</g>
		</g>
	</g>
</g>
</svg>
