<?xml version="1.0" encoding="utf-8"?>
<!-- Generator: Adobe Illustrator 24.0.1, SVG Export Plug-In . SVG Version: 6.00 Build 0)  -->
<svg version="1.1" id="Capa_1" xmlns="http://www.w3.org/2000/svg" xmlns:xlink="http://www.w3.org/1999/xlink" x="0px" y="0px"
	 viewBox="0 0 722 339.7" style="enable-background:new 0 0 722 339.7;" xml:space="preserve">
<style type="text/css">
	.st0{stroke:#000000;stroke-miterlimit:10;}
</style>
<g>
	<path d="M266.1,269.1c-9.7,0-19.1-3.4-27.7-10.2c-7.9-6.2-14.7-14-20.2-23.2l-1.9-3.2c-4-6.6-8.1-13.5-11.9-20.4
		c-2.4-4.4-4.7-8.9-7-13.3c-2.2-4.3-4.5-8.7-6.8-13c-1.4-2.5-2.8-5.1-4.2-7.6c-5.1-9.4-10.4-19.1-16.3-28.2
		c-9.5-14.6-21-27.3-34.1-37.7c-11.7-9.3-24.3-16.8-39.5-25.3c-0.9-0.5-4.1-3.5-3.5-4.8c0.7-1.4,5.7-0.4,6.1-0.2
		c2.8,1.7,5.6,3.4,8.4,5c9.5,5.6,19.3,11.5,28.5,17.8c11.5,7.9,21.8,18.2,32.4,32.5c7.6,10.2,14,20.5,19.6,31.4
		c6.8,13.2,14.2,27.4,21.6,41.2c4,7.5,8.2,14.5,12.4,21c6.6,10,14.1,20.2,25,26.7c6.1,3.7,12.6,5.6,19.1,5.6c5.9,0,12-1.5,18.2-4.5
		c9.4-4.5,18.1-11,27.4-20.4c6.1-6.2,12.2-12.6,18.1-18.7c7.9-8.3,16.2-16.9,24.4-25.2c9-9,21.3-20.2,36.4-27.6
		c10.8-5.3,22-7.9,33.4-7.9c8.1,0,16.4,1.3,24.8,4c13.7,4.3,27.4,11.3,43.1,22.2c6.2,4.3,12.5,8.7,18.6,13
		c7.9,5.6,16.1,11.3,24.2,16.9l0.1,0.1c10.6,7.2,21.6,14.7,34.2,18.6c4.2,1.3,8.4,2,12.3,2c7.6,0,14.6-2.5,20.8-7.6
		c8.7-7,17.6-15.1,26.5-23.9c18-18,37.9-26.7,60.6-26.7c5.6,0,11.3,0.5,17.2,1.6c3.2,0.6,6.6,1.4,10.5,2.3l0.1,0l0.1,0l0.3,0.1
		l0.1,0c0.1,0.1,0.3,0.1,0.5,0.2l0.1,0c0,0,0.5,0.3,0.7,0.5c1.3,0.9,2.8,2,2.9,3.2c0.1,0.5-0.1,0.9-0.4,1.3l-0.2,0.3l-0.9,0.2
		l-0.2,0l-0.2,0l-0.6,0l-0.1,0c-0.3-0.1-0.6-0.1-0.8-0.1l-0.1,0l-0.1,0c-0.4-0.1-0.7-0.1-1.1-0.1l-0.1,0l-0.1,0
		c-0.3-0.1-0.6-0.1-0.9-0.2l-0.1,0l-0.1,0c-0.2-0.1-0.5-0.1-0.7-0.2c-9.4-2.3-18-3.3-26.5-3.3c-3.7,0-7.4,0.2-11,0.6
		c-13,1.5-25.1,7.4-37.1,18c-4.5,4-9,8.2-13.4,12.2c-5.7,5.3-11.6,10.8-17.6,15.9c-8.7,7.5-18.3,11.3-28.6,11.3
		c-6,0-12.2-1.3-18.6-3.9c-11.8-4.7-22.2-11.6-30.9-17.7c-2.9-2.1-5.9-4.1-8.8-6.2c-11.1-7.9-22.6-16-34.1-23.7
		c-11.5-7.7-25.3-16.2-40.7-21.2c-8.2-2.7-16.3-4.1-24.1-4.1c-13.1,0-25.9,3.9-37.9,11.5c-13,8.2-23.5,18.5-32.2,27.5
		c-3.6,3.8-7.2,7.6-10.8,11.3c-8.4,8.8-17,17.9-25.8,26.6c-10.4,10.2-22.1,20.3-37.2,25.1C275.5,268.3,270.7,269.1,266.1,269.1z"/>
	<g>
		<path d="M13.4,291.7c0.8-0.1,1.5-0.2,2.3-0.2c1.9-0.2,3.9-0.4,5.9-0.5c3-0.1,3.7-1.7,4.4-4c2.9-9.9,6-20,9-29.7
			c0.9-2.9,1.8-5.8,2.7-8.7c0.6-2,1.2-4,1.9-6c0.9-2.7,1.7-5.4,2.5-8.2c1-3.2,1.9-6.5,2.9-9.8c1.2-4.1,2.5-8.4,3.8-12.6
			c3.1-10.1,6.2-20.1,9.3-30.1c1.5-4.9,3-9.8,4.6-14.8c0.8-2.5,1.5-4.9,2.3-7.4c1.9-6.1,3.9-12.4,5.7-18.7
			c3.5-11.9,6.9-24.1,10.3-35.8l0.3-1.2c0.3-1,0.5-2,0.6-3c0.2-1,0.3-2,0.6-3c0.8-2.7,1.5-5.3,2.2-8c2.2-7.9,4.5-16,7.2-23.9
			c1.2-3.3,4.3-6.9,7.8-8.8c1.3-0.7,2.5-1.1,3.6-1.1c1.1,0,2.1,0.4,2.8,1.2c1,1.1,1.5,2.8,1.4,5c-0.2,4.1-1,8.3-1.8,12.7
			c-0.3,1.9-0.7,3.9-1,5.9l-4-1.8c0.3-1.2,0.6-2.4,0.9-3.6c0.8-3.2,1.6-6.2,2.1-9.3c0.2-1.4,0.3-3.9-1.3-4.6
			c-0.2-0.1-0.4-0.1-0.7-0.1c-1.5,0-3.1,1.7-3.7,2.8c-2,4-3.8,8.4-5.4,13.4c-0.6,1.8-1,3.7-1.3,5.5c-0.2,1.2-0.4,2.4-0.7,3.6
			c-0.3,1.3-0.2,2.3,0.2,2.9c0.5,0.6,1.4,0.9,2.7,0.9c0.2,0,0.3,0,0.5,0c0.4,0,0.8,0,1.2,0c1.8,0,2.8,0.3,3.2,0.9
			c0.5,0.7,0.3,2-0.7,4.3c-1.5,3.8-3.1,7.6-4.6,11.4c-3.2,7.8-6.4,15.9-9.5,24c-4.2,11-8.3,22.4-12.3,33.3l-1.3,3.6
			c-3.9,10.9-7.9,22-11.7,32.7l-2.1,5.9c-1.9,5.2-3.7,10.4-5.5,15.6c-2.7,7.5-5.3,15.1-8,22.6c-4.3,12.1-8.8,24.4-13.7,37.7
			c-0.6,1.5-1.2,3-2,4.7c-0.4,0.9-0.8,1.8-1.3,2.8l-0.2,0.4l51.1-4.7l0,0.4l-63.4,5.9L13.4,291.7z"/>
		<path d="M103.3,56.5L103.3,56.5c1.1,0,1.9,0.4,2.6,1.1c1,1,1.4,2.7,1.3,4.8c-0.2,4.1-1,8.3-1.8,12.6c-0.3,1.8-0.7,3.7-1,5.6
			L101,79c0.3-1.1,0.6-2.3,0.8-3.4c0.8-3.2,1.6-6.2,2.1-9.3c0.3-1.5,0.2-4.2-1.5-4.8c-0.2-0.1-0.5-0.1-0.8-0.1c-1.6,0-3.3,1.7-3.9,3
			c-2,4.1-3.8,8.4-5.5,13.4c-0.6,1.8-1,3.7-1.3,5.5c-0.2,1.2-0.4,2.4-0.7,3.6c-0.3,1.4-0.3,2.4,0.3,3.1c0.5,0.7,1.5,1,2.9,1
			c0.2,0,0.3,0,0.5,0c0.4,0,0.8,0,1.2,0c1.7,0,2.7,0.2,3,0.8c0.4,0.6,0.2,1.8-0.7,4c-1.5,3.8-3.1,7.6-4.6,11.4
			c-3.2,7.8-6.4,15.9-9.5,24c-4.2,11.1-8.3,22.4-12.3,33.3l-1.3,3.6c-3.9,10.8-7.9,21.9-11.6,32.6l-2.1,6
			c-1.9,5.2-3.7,10.4-5.5,15.7c-2.6,7.4-5.3,15-8,22.6c-4.3,12.1-8.8,24.4-13.7,37.7c-0.5,1.5-1.2,3-2,4.7c-0.4,0.9-0.8,1.8-1.3,2.8
			l-0.3,0.7l-1.6,0.2c1.5-0.7,2.1-2.1,2.6-3.8c2.9-9.9,6-19.9,9-29.6c0.9-2.9,1.8-5.8,2.7-8.7c0.6-2,1.3-4,1.9-6
			c0.8-2.7,1.7-5.4,2.5-8.2c1-3.3,2-6.6,2.9-9.8c1.2-4.1,2.5-8.4,3.7-12.6c3.1-10,6.2-20.2,9.3-30c1.5-5,3.1-9.9,4.6-14.9
			c0.8-2.5,1.5-4.9,2.3-7.4c1.9-6.1,3.9-12.4,5.7-18.7c3.5-11.9,6.9-24,10.2-35.8l0.4-1.3c0.3-1,0.5-2,0.6-3c0.2-1,0.3-2,0.6-2.9
			c0.8-2.7,1.5-5.3,2.2-8c2.2-7.9,4.5-16,7.2-23.9c1.2-3.2,4.3-6.7,7.7-8.7C101.1,56.8,102.2,56.5,103.3,56.5 M103.3,56
			c-1.1,0-2.4,0.4-3.7,1.1c-3.3,1.9-6.7,5.4-7.9,9c-3.7,10.4-6.4,21.2-9.5,31.9c-0.6,1.9-0.7,4-1.2,5.9c-3.5,12.4-7,24.7-10.6,37
			c-2.6,8.7-5.3,17.4-8,26.1c-4.6,15-9.3,29.9-13.9,44.9c-2.3,7.4-4.4,14.9-6.6,22.4c-1.4,4.7-3,9.4-4.4,14.2
			c-3.9,12.8-8,25.5-11.7,38.4c-0.7,2.4-1.4,3.8-4.1,3.9c-2.8,0.1-5.6,0.5-8.5,0.7c0,0.3,0.1,0.6,0.1,0.8c21.3-2,42.6-3.9,63.9-5.9
			c0-0.3-0.1-0.6-0.1-0.9c-16.6,1.5-33.3,3.1-50.9,4.7c1.4-3,2.5-5.2,3.3-7.5c4.6-12.6,9.2-25.1,13.7-37.7
			c4.6-12.7,9-25.5,13.5-38.2c4.6-12.9,9.1-25.7,13.8-38.6c4.5-12.3,8.9-24.7,13.6-36.9c4.5-11.9,9.4-23.6,14.1-35.4
			c1.7-4.2,1.2-5.5-2.8-5.5c-0.4,0-0.8,0-1.2,0c-0.2,0-0.3,0-0.5,0c-2.2,0-3.4-0.8-2.7-3.5c0.7-3,1-6.2,2-9.1
			c1.5-4.6,3.3-9.1,5.4-13.4c0.5-1.1,2.1-2.7,3.5-2.7c0.2,0,0.4,0,0.6,0.1c1.4,0.5,1.4,3,1.2,4.3c-0.8,4.3-2,8.5-3.1,13.1
			c0.7,0.3,1.9,0.9,4.5,2.1c1.1-6.9,2.5-12.9,2.9-18.9C108,58.4,106.1,56,103.3,56L103.3,56z"/>
	</g>
	<path d="M81.4,82.3c-2.5-1-5.1-1.9-7.6-2.8c-5.6-2-11.4-4.1-16.8-6.7c-12.4-6-23.4-11.9-33.7-18.1c-9-5.4-15.6-11.9-19.6-19.4
		c-3.1-5.7-3.9-10.9-2.4-15.4C2.9,15.2,6.8,11.3,13,8.3c5.7-2.7,11.6-4.1,17.3-4.1c7.7,0,15.4,2.4,22.8,7.3
		C62.9,17.7,71.1,26,78.4,34c0.6,0.7,1.2,1.3,1.8,1.9l1.3,1.3c0,0,0,2.7-0.7,3.2c-0.2,0.1-1-0.2-1-0.2C79.5,40,79,40,78.5,39.9
		c-1.2-0.1-2.5-0.3-3.4-1.1c-2.8-2.5-5.6-5.2-8.3-7.8c-3.1-3-6.3-6.1-9.5-9c-9-8-17.9-11.9-27.1-11.9c-3.1,0-6.2,0.4-9.4,1.3
		c-5.5,1.5-9.5,4-12,7.8C6,23.2,8,31.8,11.7,36c15.1,17.3,35.4,26.4,55,34.3c2.5,1,5,1.9,7.4,2.8c2.1,0.8,4.1,1.5,6.1,2.3
		c3.6,1.4,3.6,2.1,2.4,6.1l-0.3,1L81.4,82.3z"/>
	<g>
		<path class="st0" d="M295.7,126l-8.9,2l14.4-77.7l0.5-2.7c0.3-1.9,0.4-3.2,0.4-3.8c-0.1-0.9-0.4-1.6-1.1-2.1
			c-0.7-0.5-1.6-0.6-2.7-0.3c-1.7,0.4-3.6,1.7-5.7,3.8c-2.1,2.1-4.6,5.5-7.6,10.1c-4.7,7.1-9.6,16.5-14.9,28.4
			c-4.1,9.3-7.6,18.3-10.3,26.9c-2.8,8.6-4.9,16.9-6.5,25l-7.7,1.7l16-83.7c0.5-2.6,0.7-4.6,0.6-6c0-0.6-0.2-1.2-0.6-1.7
			c-0.4-0.5-0.8-0.9-1.3-1c-0.5-0.2-1.2-0.2-1.8,0c-2.9,0.7-6.3,3.7-10.2,9.1c-3.9,5.4-8.4,13.4-13.5,24c-2.4,4.8-4.8,9.8-7,15
			c-2.2,5.2-4.2,10-5.9,14.4c-1.7,4.4-3.6,9.8-5.7,16c-3,9.1-5.1,16.5-6.4,22.1l-7.8,1.8l0.2-1.1l3.1-13.3c1.1-5.1,2-9.6,2.8-13.5
			c3.7-18.4,6.3-33.4,7.8-44.9c1.3-9,1.8-15.5,1.6-19.3c-0.2-2.8-0.9-4.8-2.1-6.1c-1.2-1.3-2.8-1.7-4.7-1.3
			c-4.7,1.1-8.6,6.9-11.5,17.5c-1.9,6.7-3.2,13.7-3.9,21.1l-7.2-2c0.6-6.5,2-12.5,4.1-18.1c2.1-5.6,4.7-10.2,7.9-13.9
			c3.2-3.7,6.5-5.9,10-6.7c4-0.9,7.2,0,9.7,2.8c2.5,2.8,3.9,7,4.3,12.7c0.3,4.8,0.2,10.4-0.5,16.7c-0.2,1.9-0.9,6.6-2,14.3
			l-2.6,16.7l0.5-1.5c3.8-10.5,9.5-23.1,17.1-37.9c4.8-9.2,9.3-16.3,13.6-21.5c4.3-5.1,8.3-8.1,12-8.9c2.4-0.5,4.4-0.3,6,0.8
			c1.6,1.1,2.6,2.7,2.7,5c0.2,2.3-0.2,5.7-1.1,10.3l-7.9,42.7c0.7-2,2.3-5.8,4.9-11.6c7.5-16.6,14-28.9,19.5-36.7
			c5.6-7.9,10.9-12.4,16-13.5c2.5-0.6,4.6-0.3,6.2,0.7c1.6,1,2.5,2.7,2.7,5c0.1,1.8-0.2,4.7-1,8.7L295.7,126z"/>
		<path class="st0" d="M421.5,91.9l-3.5,7.9c-1.8,0.6-3.4,1.1-4.7,1.4c-2.7,0.6-6.4,1.1-11.1,1.6c-3.4,0.3-6.8,0.4-10.1,0.5
			c-3.4,0-7.7,0-13.1-0.1c-4.4-0.1-8.7-0.1-12.9-0.1c-3.6,3.7-8,7-13.1,9.7c-5.1,2.7-10.2,4.7-15.5,5.9c-6.1,1.4-11,1.6-14.8,0.7
			c-3.8-0.9-5.8-2.7-6-5.5c-0.2-3,1.7-5.8,5.7-8.4c4-2.6,9.6-4.7,16.7-6.3c8.1-1.8,17.2-2.7,27.3-2.7c1.7-2.9,3-5.9,4-8.9
			c1-3,1.9-7.1,2.9-12.3l4.9-25.7c1.4-7.4,2.8-13.3,4.2-17.6c1.4-4.3,3-8.1,5-11.5c1.9-3.2,4-6.1,6.6-8.8c2.5-2.7,5.2-4.9,7.9-6.7
			c2.8-1.8,5.5-2.9,8.3-3.6c3-0.7,5.6-0.7,7.9-0.1c2.3,0.6,4.1,1.8,5.4,3.6c1.3,1.8,2,4.1,2.2,6.8c0.2,2.5-0.2,5.7-1.1,9.8
			c-0.9,4-2.2,7.9-3.8,11.5l-8.6,3c2.3-4.4,4.2-8.9,5.6-13.7c1.4-4.8,2-8.7,1.8-11.7c-0.2-2.9-1.1-4.9-2.8-6.1c-1.7-1.2-4-1.5-7-0.8
			c-6.4,1.4-11.5,5.9-15.3,13.5c-1.2,2.4-2.2,4.9-2.9,7.3c-0.7,2.4-1.6,6.3-2.7,11.7l-6.1,32.1c-1.3,6.9-2.8,12.5-4.5,16.7
			c-1.7,4.3-3.9,8.2-6.6,11.7l2.4,0.1c9.5,0.3,17.2,0.3,22.9,0.1c5.7-0.2,10.7-0.8,14.8-1.8C414.6,94.3,417.9,93.2,421.5,91.9z
			 M361.6,103l-2.3,0c-11.3-0.1-19.9,0.5-25.8,1.8c-9.4,2.1-13.9,5.1-13.6,8.9c0.1,1.9,1.9,3.2,5.2,3.8c3.3,0.6,7.4,0.4,12.3-0.8
			c4.7-1.1,9.2-2.8,13.4-5.2C355.1,109.1,358.7,106.3,361.6,103z"/>
	</g>
</g>
<g>
	<path d="M91.9,320.1l-2.4,14.2H85l7.7-42.8h6.4l8.1,42.8h-4.7l-2.5-14.2H91.9z M99.3,316.3c-1.8-9.9-3-17.3-3.4-21.2h-0.2
		c-0.2,3.3-1.9,13-3.2,21.2H99.3z"/>
	<path d="M115.8,314.1v20.2h-4.5v-42.8h7.8c7,0,10.3,2.8,10.3,9.7v2c0,5.6-2.1,8.2-4.8,9c3,1,4.4,3.1,4.4,8.8
		c0,3.7-0.1,10.5,0.5,13.2h-4.4c-0.6-2.7-0.5-9.9-0.5-12.9c0-5.6-0.9-7.3-5.6-7.3H115.8z M115.8,310.6h3.4c4.6,0,5.7-2.6,5.7-7.2v-2
		c0-4.1-1.3-6.5-6.1-6.5h-3V310.6z"/>
	<path d="M139.8,314.1v20.2h-4.5v-42.8h7.8c7,0,10.3,2.8,10.3,9.7v2c0,5.6-2.1,8.2-4.8,9c3,1,4.4,3.1,4.4,8.8
		c0,3.7-0.1,10.5,0.5,13.2h-4.4c-0.6-2.7-0.5-9.9-0.5-12.9c0-5.6-0.9-7.3-5.6-7.3H139.8z M139.8,310.6h3.4c4.6,0,5.7-2.6,5.7-7.2v-2
		c0-4.1-1.3-6.5-6.1-6.5h-3V310.6z"/>
	<path d="M174.3,313.2h-10.6v17.3h12l-0.6,3.7h-15.8v-42.8h15.6v3.8h-11.2v14.3h10.6V313.2z"/>
	<path d="M198.6,334.2H195c-0.1-0.7-0.3-2.8-0.3-3.8c-1.2,3.3-3.8,4.4-6.9,4.4c-6.4,0-8.5-4.3-8.5-11.1V302c0-7,3.1-11.1,9.8-11.1
		c7.8,0,9.4,5,9.4,10.6v1h-4.5v-1.1c0-3.2-0.4-6.8-5-6.8c-3.4,0-5.2,1.9-5.2,7.1v22.1c0,4.4,1.2,7.3,4.8,7.3c4.6,0,5.3-3.9,5.3-9.6
		v-7h-5.5V311h10V334.2z"/>
	<path d="M205.1,291.4h4.5v39.1h11.8l-0.5,3.7h-15.7V291.4z"/>
	<path d="M243.1,301.7v22c0,7.4-3.3,11.1-10.1,11.1c-7.2,0-9.6-4.3-9.6-11.1v-22c0-7.1,3.4-10.9,10-10.9
		C240.2,290.9,243.1,295.3,243.1,301.7z M228,301.6V324c0,5.1,2,7.1,5.3,7.1c3.4,0,5.3-1.9,5.3-7.3v-22.1c0-4.8-1.8-7.1-5.3-7.1
		C229.7,294.6,228,296.7,228,301.6z"/>
	<path d="M251.7,322.3v2.4c0,4.2,1.6,6.5,5.1,6.5c3.5,0,5-2.2,5-7.3c0-5.1-1.2-7.2-6.2-10.7c-5-3.6-7.5-5.7-7.5-12
		c0-5.4,1.8-10.5,8.9-10.4c6.6,0,8.5,4,8.5,9.6v1.9H261v-1.8c0-3.7-0.8-6.1-4.2-6.1c-3.4,0-4.3,2.7-4.3,6.2c0,4.2,0.9,5.7,5.3,8.7
		c6.4,4.4,8.4,6.9,8.4,14c0,6-1.8,11.4-9.5,11.4c-7.3,0-9.5-4.4-9.5-10v-2.4H251.7z"/>
	<path d="M315,308.3l-6.9,17.1c-2.6,6.3-5.6,9.3-10.4,9.3c-6.5,0-8.7-4.8-8.7-11.2c0-6.9,2.6-9.5,8.2-13.8c4.2-3.3,5.3-5.4,5.3-9.9
		c0-3.2-0.5-5.4-3.3-5.4c-2.5,0-3.4,2.3-3.4,5.5c0,4.2,0.3,5.7,2.7,9.6l15.9,24.8h-5l-14.1-21.9c-2.9-4.4-3.7-7-3.7-12.2
		c0-5.5,2.4-9.2,7.7-9.2c5.3,0,7.5,3.2,7.5,8.6c0,6.1-1.9,8.7-7.5,13c-4.6,3.6-5.7,5.6-5.7,10.7c0,4.9,1.6,7.4,4.8,7.4
		c2.9,0,4.3-1.7,6.1-6.2l6.5-16.2H315z"/>
	<path d="M342.7,320.1l-2.4,14.2h-4.5l7.7-42.8h6.4l8.1,42.8h-4.7l-2.5-14.2H342.7z M350.2,316.3c-1.8-9.9-3-17.3-3.4-21.2h-0.2
		c-0.2,3.3-1.9,13-3.2,21.2H350.2z"/>
	<path d="M362.2,291.4h4.5v39.1h11.8l-0.5,3.7h-15.7V291.4z"/>
	<path d="M400.2,301.7v22c0,7.4-3.3,11.1-10.1,11.1c-7.2,0-9.6-4.3-9.6-11.1v-22c0-7.1,3.4-10.9,10-10.9
		C397.3,290.9,400.2,295.3,400.2,301.7z M385,301.6V324c0,5.1,2,7.1,5.3,7.1c3.4,0,5.3-1.9,5.3-7.3v-22.1c0-4.8-1.8-7.1-5.3-7.1
		C386.7,294.6,385,296.7,385,301.6z M396.8,331.7l6.3,4.5l-2.8,2.9l-7.2-5.2L396.8,331.7z"/>
	<path d="M410.5,291.4v33.4c0,3.6,1.4,6.2,5.1,6.2c3.8,0,5.1-2.3,5.1-6.1v-33.5h4.5v33.3c0,6.6-3.2,10.1-9.7,10.1
		c-6.3,0-9.5-3.2-9.5-9.9v-33.4H410.5z"/>
	<path d="M436.5,291.4v42.8H432v-42.8H436.5z"/>
	<path d="M443.6,291.4h4.5v39.1h11.8l-0.5,3.7h-15.7V291.4z"/>
	<path d="M478,313.2h-10.6v17.3h12l-0.6,3.7h-15.8v-42.8h15.6v3.8h-11.2v14.3H478V313.2z"/>
	<path d="M487.9,314.1v20.2h-4.5v-42.8h7.8c7,0,10.3,2.8,10.3,9.7v2c0,5.6-2.1,8.2-4.8,9c3,1,4.4,3.1,4.4,8.8
		c0,3.7-0.1,10.5,0.5,13.2h-4.4c-0.6-2.7-0.5-9.9-0.5-12.9c0-5.6-0.9-7.3-5.6-7.3H487.9z M487.9,310.6h3.4c4.6,0,5.7-2.6,5.7-7.2v-2
		c0-4.1-1.3-6.5-6.1-6.5h-3V310.6z"/>
	<path d="M534.3,322.1v1.4c0,5.6-1.1,11.3-9.3,11.3c-8,0-9.3-5.3-9.3-11.6v-21.8c0-6.9,3.2-10.6,9.3-10.6c7.6,0,9,5.1,9,10.6v1.6
		h-4.6v-1.8c0-3.5-0.5-6.6-4.5-6.6c-3.8,0-4.7,2.8-4.7,6.7v22.1c0,4.6,1.1,7.6,4.8,7.6c3.9,0,4.6-3.1,4.6-7.4v-1.7H534.3z"/>
	<path d="M554.3,313.2h-10.6v17.3h12l-0.6,3.7h-15.8v-42.8h15.6v3.8h-11.2v14.3h10.6V313.2z"/>
	<path d="M564.3,314.1v20.2h-4.5v-42.8h7.8c7,0,10.3,2.8,10.3,9.7v2c0,5.6-2.1,8.2-4.8,9c3,1,4.4,3.1,4.4,8.8
		c0,3.7-0.1,10.5,0.5,13.2h-4.4c-0.6-2.7-0.5-9.9-0.5-12.9c0-5.6-0.9-7.3-5.6-7.3H564.3z M564.3,310.6h3.4c4.6,0,5.7-2.6,5.7-7.2v-2
		c0-4.1-1.3-6.5-6.1-6.5h-3V310.6z"/>
	<path d="M598.8,313.2h-10.6v17.3h12l-0.6,3.7h-15.8v-42.8h15.6v3.8h-11.2v14.3h10.6V313.2z"/>
	<path d="M627.2,315.9c0-8,0.2-16.3,0.3-20.8h-0.1c-1.2,7.1-5,26.3-7.6,39.1h-4.4c-2-11-5.9-31.6-7.1-39.2h-0.1
		c0.1,5,0.4,14.7,0.4,22v17.1h-4.2v-42.8h6.6c2.7,13.1,6.1,29.6,6.7,34.9h0.1c0.7-5.2,4.6-22.6,7.3-34.9h6.5v42.8h-4.4V315.9z"/>
	<path d="M657.3,301.7v22c0,7.4-3.3,11.1-10.1,11.1c-7.2,0-9.6-4.3-9.6-11.1v-22c0-7.1,3.4-10.9,10-10.9
		C654.4,290.9,657.3,295.3,657.3,301.7z M642.1,301.6V324c0,5.1,2,7.1,5.3,7.1c3.4,0,5.3-1.9,5.3-7.3v-22.1c0-4.8-1.8-7.1-5.3-7.1
		C643.8,294.6,642.1,296.7,642.1,301.6z"/>
	<path d="M663.4,334.2v-42.8h5.4c2.7,8.4,9.4,31.1,10.3,34.9h0.1c-0.3-5.9-0.4-11.9-0.4-18.9v-16h4.2v42.8h-5.2
		c-2.7-8.7-9.6-32.3-10.6-36.1h-0.1c0.3,5.2,0.5,12.2,0.5,20v16.1H663.4z"/>
	<path d="M694.6,291.4v42.8h-4.5v-42.8H694.6z"/>
	<path d="M705.9,320.1l-2.4,14.2H699l7.7-42.8h6.4l8.1,42.8h-4.7l-2.5-14.2H705.9z M713.3,316.3c-1.8-9.9-3-17.3-3.4-21.2h-0.2
		c-0.2,3.3-1.9,13-3.2,21.2H713.3z"/>
</g>
</svg>
