<?xml version="1.0" encoding="utf-8"?>
<!-- Generator: Adobe Illustrator 24.0.1, SVG Export Plug-In . SVG Version: 6.00 Build 0)  -->
<svg version="1.1" id="Capa_1" xmlns="http://www.w3.org/2000/svg" xmlns:xlink="http://www.w3.org/1999/xlink" x="0px" y="0px"
	 viewBox="0 0 405.4 340.2" style="enable-background:new 0 0 405.4 340.2;" xml:space="preserve">
<style type="text/css">
	.st0{fill:#1D1D1B;}
</style>
<g>
	<g>
		<g>
			<path class="st0" d="M403.7,165.5c-1.5-1-3.4-1.2-5.1-1.6c-8.3-1.7-17.2-1.5-25.3,1.1c-3.1,1-6.1,2.4-8.9,4.1
				c-7.1,4.3-12.6,10.6-18.6,16.2c-2.2,2-4.5,4-6.8,5.9c-3.5,2.8-7.3,4.3-11.6,4.3c-2.2,0-4.5-0.4-6.8-1.1
				c-7-2.2-13.1-6.4-19.1-10.5c-4.5-3.1-9.1-6.4-13.5-9.5c-3.4-2.5-6.9-4.9-10.4-7.3c-8.8-6.1-16.4-10.1-24-12.5
				c-4.7-1.5-9.3-2.2-13.8-2.2c-6.3,0-12.6,1.5-18.6,4.5c-8.4,4.2-15.2,10.5-20.2,15.5c-4.6,4.6-9.2,9.5-13.6,14.2
				c-3.3,3.5-6.7,7.1-10.1,10.6c-5.2,5.3-10,9-15.2,11.5c-3.5,1.7-6.9,2.5-10.1,2.5c-3.6,0-7.2-1.1-10.6-3.1
				c-6-3.7-10.2-9.4-13.9-15.1c-2.3-3.6-4.7-7.6-6.9-11.8c-4.2-7.8-8.3-15.8-12-23.2c-3.1-6.2-6.7-12-10.9-17.7
				c-3.5-4.8-7.4-9.4-11.9-13.4c-4.5-4.1-9.7-7.3-14.9-10.6c-3.2-2-6.5-3.9-9.7-5.9c-1.1-0.7-3.6-2.7-4.8-1.3
				c-0.2,0.2-0.3,0.6-0.3,0.9c0,0.3,0.2,0.6,0.4,0.9c0.9,1.1,2.1,1.8,3.3,2.4c1.4,0.7,2.7,1.5,4,2.3c2.7,1.6,5.4,3.3,8,5
				c5.1,3.5,10,7.2,14.3,11.6c4.2,4.2,8,8.9,11.3,13.8c0.3,0.4,0.5,1,0.8,1.3c3.3,5.1,6.2,10.6,9.1,15.9c0.8,1.4,1.5,2.9,2.3,4.3
				c1.3,2.4,2.6,4.9,3.8,7.3c1.2,2.5,2.5,5,3.9,7.5c2.1,3.9,4.4,7.7,6.6,11.5l1.1,1.8c3.1,5.2,6.8,9.6,11.2,13
				c4.8,3.8,10,5.7,15.4,5.7c2.6,0,5.2-0.4,8-1.3c8.4-2.7,14.9-8.4,20.7-14.1c4.9-4.9,9.7-10,14.4-15c2-2.1,4-4.3,6-6.4
				c4.8-5.1,10.7-10.9,17.9-15.5c6.7-4.3,13.8-6.5,21.1-6.5c4.3,0,8.8,0.8,13.4,2.3c8.6,2.8,16.3,7.6,22.6,12
				c6.4,4.3,12.8,8.9,18.9,13.3c1.6,1.2,3.3,2.3,4.9,3.5c4.8,3.4,10.6,7.3,17.2,10c3.5,1.4,7,2.2,10.3,2.2c5.7,0,11-2.1,15.9-6.3
				c6.4-5.5,12.2-11.7,18.8-17.1c2.9-2.4,5.8-4.4,9.1-5.9c3.3-1.5,6.7-2.6,10.3-3c3.8-0.5,7.6-0.4,11.3,0c1.8,0.2,3.6,0.5,5.4,0.8
				c1.8,0.3,3.6,1,5.4,1.2c0.5,0.1,1,0.1,1.5-0.1c0.2-0.1,0.4-0.2,0.5-0.4C405.8,167.1,404.2,165.9,403.7,165.5z"/>
			<path class="st0" d="M57.9,92.1c-0.1-0.1-0.3-0.3-0.5-0.4c-0.6-0.4-1.3-0.5-2-0.4c-3.1,0.3-5.5,3.2-6.5,6
				c-2.2,6.2-3.8,12.7-5.5,19.1c-1.7,6.5-3.5,13-5.4,19.4c-0.4,1.2-0.7,2.5-1.1,3.7c-1,3.5-2.1,7.1-3.2,10.5
				c-0.4,1.4-3.8,12.6-3.8,12.6c-1.7,5.6-3.5,11.3-5.2,16.9c-0.7,2.4-1.4,4.7-2.1,7.1c-0.5,1.8-1.1,3.7-1.6,5.5
				c-0.5,1.5-0.9,3.1-1.4,4.6c-0.4,1.1-0.7,2.3-1.1,3.4l-1.5,4.9c-1.7,5.5-3.4,11.1-5,16.7c-0.4,1.3-0.7,1.7-1.8,1.8
				c-1.5,0-3,0.2-4.5,0.4c-0.2,0-0.3,0-0.5,0.1c-0.4,0.2-0.3,0.7-0.2,1c0,0.3,0.3,0.5,0.6,0.5c0,0,35.6-3.3,35.6-3.3
				c0.3,0,0.5-0.3,0.5-0.6l0-0.5c0-0.1-0.1-0.3-0.2-0.4c-0.1-0.1-0.2-0.1-0.4-0.1c0,0-27.4,2.6-27.4,2.6c0.1-0.2,0.2-0.5,0.3-0.7
				c0.4-1,0.8-1.8,1.2-2.7c2.7-7.5,5.2-14.4,7.6-21.3c1.5-4.2,3-8.4,4.4-12.7c1-3,2.1-5.9,3.1-8.9l1.2-3.4
				c2.1-6.1,4.3-12.2,6.5-18.3l0.7-2c2.2-6.2,4.5-12.5,6.8-18.7c1.4-3.6,2.8-7.2,4.2-10.8c0.7-1.8,1.4-3.5,2.1-5.3
				c0.6-1.7,1.4-3.2,1.8-5c0.2-0.7,0.3-1.6-0.2-2.1c-0.6-0.7-1.6-0.7-2.4-0.6c-0.4,0.1-0.8,0.1-1.2,0c-0.8-0.3-0.7-1.3-0.6-2
				c0.5-2.2,1.1-4.4,1.7-6.6c0.5-1.9,1.1-3.8,2.4-5.3c0.9-1.1,2.2-1.1,2.3,0.5c0.1,1-0.3,2.1-0.5,3.1c-0.4,1.4-1,2.7-1.4,4.1
				c-0.1,0.2-0.1,0.5,0,0.7c0.1,0.1,0.2,0.3,0.3,0.4c0.6,0.5,1.2,0.8,2,0.9c0.1,0,0.2,0,0.4,0c0.7-0.2,0.9-1.2,1.1-1.8
				c0.3-1.1,0.5-2.1,0.7-3.2c0.2-1.1,0.4-2.2,0.5-3.4c0-0.2,0.1-0.4,0.1-0.6C59,95.7,59.2,93.5,57.9,92.1z"/>
			<path class="st0" d="M41.9,101.1C41.9,101.1,41.9,101.1,41.9,101.1C31.6,97.1,21,93.2,12.2,86.2c-1.9-1.5-3.7-3.1-5.3-4.9
				c-0.4-0.4-0.8-0.8-1.1-1.2c-1.7-2-2.8-5.5-1.9-8.1c0.8-2.2,2.9-3.6,5.1-4.5c7-2.8,14.3-0.3,19.9,4.3c2.9,2.4,5.4,5.1,8.1,7.7
				c1.3,1.2,2.7,2.4,4.4,2.6c0.4,0.1,0.8,0,1-0.3c0.1-0.1,0.2-0.3,0.1-0.5c0-0.6-0.4-1.1-0.8-1.5c-6.2-7-14.1-16-24-16.6
				c-3-0.2-6.1,0.1-9,1.1c-3.5,1.2-7,3.2-8.3,6.9c-2.2,6.6,3.9,13.1,8.6,16.8c3.1,2.4,6.6,4.4,10.1,6.2c3.5,1.8,6.9,3.7,10.4,5.5
				c2.9,1.4,5.9,2.5,8.8,3.6c0.9,0.3,3.6,1.9,4.4,1.3c0.4-0.3,0.6-0.8,0.7-1.3c0-0.3,0-0.6-0.1-0.9
				C43.3,101.7,42.6,101.4,41.9,101.1z"/>
			<g>
				<g>
					<path class="st0" d="M260.8,137.7l-9.9,2.3l16-87.1l0.5-3c0.3-2.1,0.5-3.6,0.4-4.3c-0.1-1-0.5-1.8-1.2-2.3
						c-0.7-0.5-1.7-0.6-3-0.4c-1.9,0.4-4,1.9-6.3,4.3c-2.3,2.4-5.1,6.2-8.4,11.4c-5.2,7.9-10.7,18.5-16.5,31.8
						c-4.6,10.5-8.4,20.5-11.5,30.1c-3.1,9.6-5.5,19-7.2,28.1l-8.6,2L223,56.5c0.6-2.9,0.8-5.2,0.7-6.8c0-0.7-0.3-1.3-0.7-1.9
						c-0.4-0.6-0.9-1-1.5-1.1c-0.6-0.2-1.3-0.2-2,0c-3.2,0.7-7,4.1-11.3,10.2c-4.3,6-9.3,15-15,27c-2.7,5.4-5.3,11-7.7,16.8
						c-2.5,5.8-4.6,11.2-6.5,16.1c-1.9,5-4,11-6.3,18c-3.3,10.2-5.7,18.5-7.1,24.8l-8.7,2l0.2-1.2l3.5-14.9
						c1.2-5.7,2.3-10.7,3.1-15.1c4.1-20.7,6.9-37.5,8.6-50.4c1.5-10.1,2-17.4,1.7-21.7c-0.2-3.1-1-5.4-2.3-6.9
						c-1.3-1.4-3-1.9-5.2-1.4c-5.2,1.2-9.5,7.7-12.8,19.6c-2.1,7.5-3.5,15.4-4.3,23.7l-8-2.2c0.7-7.3,2.2-14,4.5-20.3
						c2.3-6.3,5.2-11.5,8.8-15.6c3.5-4.1,7.2-6.6,11-7.5c4.4-1,8,0.1,10.7,3.2c2.8,3.1,4.4,7.9,4.8,14.3c0.4,5.4,0.2,11.6-0.6,18.7
						c-0.2,2.1-0.9,7.4-2.2,16.1l-2.9,18.7l0.5-1.7c4.2-11.8,10.5-26,18.9-42.5c5.3-10.3,10.3-18.3,15-24.1c4.7-5.7,9.2-9.1,13.3-10
						c2.6-0.6,4.8-0.3,6.7,0.9c1.8,1.2,2.8,3.1,3,5.6c0.2,2.6-0.2,6.4-1.2,11.5l-8.8,47.9c0.8-2.2,2.5-6.5,5.4-13
						c8.3-18.7,15.5-32.4,21.6-41.2c6.2-8.8,12-13.9,17.7-15.2c2.8-0.6,5.1-0.4,6.9,0.8c1.8,1.2,2.8,3,3,5.6
						c0.1,2.1-0.2,5.3-1.1,9.8L260.8,137.7z"/>
				</g>
				<g>
					<path class="st0" d="M389.8,102.2l-3.9,8.9c-2,0.7-3.7,1.3-5.2,1.6c-3,0.7-7.1,1.3-12.3,1.7c-3.7,0.3-7.5,0.5-11.2,0.5
						c-3.7,0.1-8.6,0-14.5-0.1c-4.8-0.1-9.6-0.1-14.3-0.1c-4,4.2-8.9,7.8-14.5,10.9c-5.6,3.1-11.4,5.3-17.1,6.6
						c-6.7,1.5-12.2,1.8-16.4,0.8s-6.4-3.1-6.7-6.2c-0.2-3.4,1.9-6.5,6.4-9.5c4.5-3,10.6-5.3,18.5-7.1c8.9-2,19-3,30.2-3
						c1.9-3.3,3.3-6.6,4.4-10c1.1-3.4,2.1-8,3.2-13.8l5.4-28.9c1.6-8.4,3.1-14.9,4.6-19.8c1.5-4.8,3.4-9.1,5.5-12.8
						c2.1-3.6,4.5-6.8,7.3-9.9c2.8-3,5.7-5.5,8.8-7.5c3.1-2,6.1-3.3,9.1-4c3.3-0.8,6.2-0.8,8.8-0.1s4.6,2,6,4c1.4,2,2.3,4.5,2.5,7.6
						c0.2,2.8-0.2,6.4-1.2,11c-1,4.5-2.4,8.8-4.2,12.9l-9.5,3.3c2.6-4.9,4.7-10,6.3-15.4c1.6-5.4,2.3-9.7,2-13.2
						c-0.2-3.2-1.3-5.5-3.1-6.8c-1.8-1.3-4.4-1.6-7.7-0.9c-7.1,1.6-12.7,6.7-16.9,15.1c-1.3,2.7-2.4,5.4-3.2,8.1
						c-0.8,2.7-1.8,7.1-3,13.1l-6.8,36.1c-1.5,7.7-3.1,14-5,18.8c-1.8,4.8-4.3,9.2-7.4,13.2l2.6,0.1c10.6,0.3,19,0.4,25.4,0.1
						c6.4-0.3,11.9-0.9,16.5-2C382.1,104.8,385.8,103.7,389.8,102.2z M323.3,114.6l-2.5,0c-12.5-0.1-22,0.6-28.5,2.1
						c-10.4,2.4-15.4,5.7-15.1,10c0.2,2.2,2.1,3.6,5.7,4.3c3.7,0.7,8.2,0.4,13.7-0.8c5.2-1.2,10.2-3.2,14.9-5.9
						C316.1,121.5,320.1,118.3,323.3,114.6z"/>
				</g>
			</g>
		</g>
	</g>
	<g>
		<g>
			<rect x="186" y="239.2" class="st0" width="29.7" height="2.4"/>
		</g>
		<g>
			<rect x="186" y="337.7" class="st0" width="29.7" height="2.4"/>
		</g>
		<g>
			<path class="st0" d="M152,273.3h-5.3v-1.9h1.6l-0.9-2.6H141l-0.9,2.6h1.6v1.9h-5.3v-1.9h1.3l4.4-12.8h-1.7v-1.9h7.4v1.9h-1.7
				l4.4,12.8h1.3V273.3z M141.8,266.7h5l-2.5-7.2L141.8,266.7z"/>
			<path class="st0" d="M159.8,271.4v1.9h-6v-1.9h1.7v-12.8h-1.7v-1.9h7.6c0.8,0,1.4,0.1,2,0.4s1.1,0.6,1.5,1c0.4,0.4,0.7,0.9,1,1.5
				c0.2,0.6,0.3,1.1,0.3,1.8c0,0.9-0.2,1.6-0.5,2.1c-0.3,0.6-0.7,1-1.1,1.3c-0.4,0.3-0.9,0.6-1.4,0.7c-0.5,0.1-0.9,0.2-1.2,0.2
				l4.1,5.6h1.7v1.9h-3.2l-5.3-7.5H158v5.6H159.8z M163.6,260.4c-0.1-0.3-0.2-0.6-0.4-0.8c-0.2-0.3-0.5-0.5-0.8-0.6
				c-0.3-0.2-0.7-0.2-1.2-0.2H158v5.2h3.1c1,0,1.6-0.2,2-0.7c0.4-0.5,0.6-1.1,0.6-1.8C163.7,261,163.7,260.7,163.6,260.4z"/>
			<path class="st0" d="M175.7,271.4v1.9h-6v-1.9h1.7v-12.8h-1.7v-1.9h7.6c0.8,0,1.4,0.1,2,0.4c0.6,0.2,1.1,0.6,1.5,1
				c0.4,0.4,0.7,0.9,1,1.5c0.2,0.6,0.3,1.1,0.3,1.8c0,0.9-0.2,1.6-0.5,2.1c-0.3,0.6-0.7,1-1.1,1.3c-0.4,0.3-0.9,0.6-1.4,0.7
				c-0.5,0.1-0.9,0.2-1.2,0.2l4.1,5.6h1.7v1.9h-3.2l-5.3-7.5h-1.4v5.6H175.7z M179.5,260.4c-0.1-0.3-0.2-0.6-0.4-0.8
				c-0.2-0.3-0.5-0.5-0.8-0.6c-0.3-0.2-0.7-0.2-1.2-0.2h-3.1v5.2h3.1c1,0,1.6-0.2,2-0.7c0.4-0.5,0.6-1.1,0.6-1.8
				C179.6,261,179.6,260.7,179.5,260.4z"/>
			<path class="st0" d="M187.6,271.4v-12.8h-1.7v-1.9h12.7v3.6h-2v-1.6h-6.5v5h4.2v1.9h-4.2v5.9h6.5v-1.9h2v3.8h-12.7v-1.9H187.6z"
				/>
			<path class="st0" d="M209.6,266.5v-2.1h8.3v9h-2.3v-2c-0.2,0.2-0.4,0.4-0.7,0.7c-0.3,0.3-0.7,0.5-1.2,0.7
				c-0.5,0.2-1.1,0.4-1.8,0.6c-0.7,0.2-1.5,0.2-2.5,0.2c-1.4,0-2.7-0.2-3.7-0.7c-1.1-0.5-2-1.1-2.7-1.9c-0.7-0.8-1.3-1.7-1.7-2.7
				c-0.4-1-0.6-2-0.6-3.1c0-1.1,0.2-2.2,0.6-3.3s1-2,1.7-2.8c0.7-0.8,1.6-1.4,2.7-1.9s2.3-0.7,3.7-0.7c1.3,0,2.4,0.1,3.2,0.4
				c0.9,0.3,1.5,0.6,2,1v-1.3h2.3v5.1h-2.3v-1.1c-0.4-0.6-1.1-1-1.9-1.4c-0.8-0.3-1.9-0.5-3.1-0.5c-1,0-1.9,0.2-2.7,0.5
				c-0.8,0.3-1.4,0.8-2,1.3c-0.5,0.6-1,1.2-1.2,2c-0.3,0.8-0.4,1.6-0.4,2.5c0,0.8,0.1,1.6,0.4,2.4c0.3,0.8,0.7,1.4,1.2,2
				c0.5,0.6,1.2,1,2,1.4c0.8,0.3,1.7,0.5,2.8,0.5c1,0,1.8-0.1,2.6-0.4c0.7-0.3,1.3-0.7,1.8-1.1c0.5-0.5,0.8-1,1-1.6
				c0.2-0.6,0.4-1.2,0.4-1.8H209.6z"/>
			<path class="st0" d="M231.3,270v3.3h-11.7v-1.9h1.7v-12.8h-1.7v-1.9h5.9v1.9h-1.7v12.8h5.4V270H231.3z"/>
			<path class="st0" d="M232.3,261.9c0.4-1,1-1.9,1.7-2.7c0.8-0.8,1.7-1.4,2.9-1.9c1.1-0.5,2.5-0.7,4-0.7c1.5,0,2.9,0.2,4,0.7
				c1.1,0.5,2.1,1.1,2.9,1.9c0.8,0.8,1.3,1.7,1.7,2.7c0.4,1,0.6,2.1,0.6,3.1c0,1.1-0.2,2.1-0.6,3.1c-0.4,1-1,1.9-1.7,2.7
				c-0.8,0.8-1.7,1.4-2.9,1.9c-1.1,0.5-2.5,0.7-4,0.7c-1.5,0-2.9-0.2-4-0.7c-1.1-0.5-2.1-1.1-2.9-1.9c-0.8-0.8-1.3-1.7-1.7-2.7
				s-0.6-2.1-0.6-3.1C231.8,264,232,262.9,232.3,261.9z M247.1,262.7c-0.3-0.8-0.7-1.4-1.3-2c-0.6-0.6-1.2-1-2.1-1.4
				c-0.8-0.3-1.8-0.5-2.8-0.5s-2,0.2-2.8,0.5c-0.8,0.3-1.5,0.8-2.1,1.4c-0.6,0.6-1,1.2-1.3,2c-0.3,0.8-0.4,1.5-0.4,2.3
				c0,0.8,0.1,1.6,0.4,2.3c0.3,0.7,0.7,1.4,1.3,2c0.6,0.6,1.2,1,2.1,1.4c0.8,0.3,1.8,0.5,2.8,0.5s2-0.2,2.8-0.5
				c0.8-0.3,1.5-0.8,2.1-1.4c0.6-0.6,1-1.2,1.3-2c0.3-0.7,0.4-1.5,0.4-2.3C247.5,264.3,247.4,263.5,247.1,262.7z"/>
			<path class="st0" d="M261.3,267.6c-0.2-0.3-0.4-0.6-0.8-0.9c-0.4-0.3-0.9-0.5-1.5-0.8c-0.6-0.2-1.3-0.4-2.2-0.7
				c-0.7-0.1-1.3-0.3-1.8-0.5c-0.6-0.2-1.1-0.5-1.5-0.8c-0.4-0.3-0.8-0.7-1-1.2c-0.3-0.5-0.4-1-0.4-1.7c0-0.7,0.1-1.3,0.4-1.9
				c0.3-0.5,0.7-1,1.2-1.4c0.5-0.4,1.1-0.7,1.8-0.9c0.7-0.2,1.5-0.3,2.3-0.3c0.9,0,1.6,0.1,2.1,0.2c0.5,0.2,1,0.4,1.3,0.6v-0.7h2.1
				v4h-2.1v-1.2c-0.1-0.1-0.3-0.2-0.5-0.3c-0.2-0.1-0.5-0.2-0.7-0.3c-0.3-0.1-0.6-0.2-1-0.3c-0.4-0.1-0.8-0.1-1.2-0.1
				c-0.5,0-1,0.1-1.4,0.2c-0.4,0.1-0.8,0.3-1.1,0.5c-0.3,0.2-0.5,0.5-0.7,0.7c-0.2,0.3-0.2,0.6-0.2,0.9c0,0.3,0.1,0.6,0.2,0.9
				c0.1,0.2,0.3,0.5,0.6,0.7c0.3,0.2,0.7,0.4,1.2,0.5c0.5,0.2,1.1,0.3,1.8,0.5c1.9,0.5,3.3,1.2,4.2,2c1,0.8,1.4,1.9,1.4,3.3
				c0,0.7-0.1,1.4-0.4,2c-0.3,0.6-0.7,1.1-1.2,1.5c-0.5,0.4-1.2,0.7-1.9,1c-0.7,0.2-1.6,0.3-2.5,0.3c-0.5,0-1,0-1.4-0.1
				c-0.4-0.1-0.8-0.2-1.1-0.3c-0.3-0.1-0.6-0.3-0.8-0.4c-0.2-0.1-0.4-0.3-0.5-0.4v1h-2v-4.7h2v1.4c0.1,0.1,0.2,0.2,0.4,0.4
				c0.2,0.2,0.5,0.3,0.8,0.5c0.3,0.2,0.7,0.3,1.1,0.4s0.9,0.2,1.4,0.2c0.7,0,1.3-0.1,1.7-0.3c0.5-0.2,0.9-0.4,1.2-0.7
				c0.3-0.3,0.6-0.6,0.7-0.9c0.2-0.3,0.2-0.7,0.2-1C261.5,268.3,261.4,267.9,261.3,267.6z"/>
			<path class="st0" d="M198.9,282.7c-0.2,0.2-0.3,0.4-0.3,0.7c0,0.2,0,0.4,0.1,0.5c0.1,0.2,0.2,0.4,0.3,0.5l3.1,4.3
				c0.1-0.1,0.2-0.3,0.3-0.5c0.1-0.2,0.2-0.4,0.2-0.6c0.1-0.2,0.1-0.5,0.2-0.7c0-0.3,0.1-0.5,0.1-0.8h-1v-1.3h3.5v1.3h-1.1
				c-0.1,1-0.2,1.8-0.5,2.4c-0.3,0.6-0.5,1.1-0.8,1.4l1.6,2.3h-2.1l-0.8-1c-0.2,0.1-0.4,0.2-0.6,0.4c-0.2,0.1-0.5,0.3-0.8,0.4
				c-0.3,0.1-0.6,0.2-1,0.3c-0.4,0.1-0.8,0.1-1.2,0.1c-0.4,0-0.7-0.1-1.1-0.2c-0.4-0.1-0.7-0.3-1.1-0.6c-0.3-0.3-0.6-0.6-0.8-1
				c-0.2-0.4-0.3-0.8-0.3-1.4c0-0.4,0.1-0.8,0.2-1.1c0.1-0.3,0.3-0.6,0.5-0.9c0.2-0.3,0.5-0.6,0.8-0.9c0.3-0.3,0.8-0.6,1.2-0.9
				l-0.2-0.3c-0.1-0.2-0.3-0.5-0.4-0.8c-0.1-0.3-0.2-0.6-0.2-1c0-0.2,0-0.4,0.1-0.7c0.1-0.3,0.2-0.5,0.5-0.7
				c0.2-0.2,0.5-0.4,0.9-0.6c0.4-0.2,0.9-0.2,1.5-0.2c0.8,0,1.4,0.1,2,0.2c0.6,0.1,1,0.3,1.3,0.5v2h-1.4v-1.1
				c-0.1,0-0.2-0.1-0.3-0.1c-0.1,0-0.3-0.1-0.5-0.1c-0.2,0-0.3,0-0.5-0.1c-0.2,0-0.4,0-0.5,0C199.4,282.5,199.1,282.5,198.9,282.7z
				 M196.6,289.6c0.1,0.2,0.2,0.4,0.4,0.6c0.2,0.2,0.4,0.3,0.6,0.4c0.2,0.1,0.5,0.2,0.9,0.2c0.5,0,1-0.1,1.3-0.3
				c0.4-0.2,0.7-0.4,1-0.6l-2.5-3.5c-0.4,0.2-0.7,0.5-0.9,0.7c-0.2,0.2-0.4,0.4-0.6,0.7c-0.1,0.2-0.2,0.4-0.3,0.6
				c-0.1,0.2-0.1,0.4-0.1,0.5C196.5,289.2,196.5,289.4,196.6,289.6z"/>
			<path class="st0" d="M78.3,320.1h-5.3v-1.9h1.6l-0.9-2.6h-6.4l-0.9,2.6H68v1.9h-5.3v-1.9h1.3l4.4-12.8h-1.7v-1.9h7.4v1.9h-1.7
				l4.4,12.8h1.3V320.1z M68.1,313.5h5l-2.5-7.2L68.1,313.5z"/>
			<path class="st0" d="M91.8,316.8v3.3H80v-1.9h1.7v-12.8H80v-1.9H86v1.9h-1.7v12.8h5.4v-1.4H91.8z"/>
			<path class="st0" d="M92.6,308.7c0.4-1,1-1.9,1.7-2.7c0.8-0.8,1.7-1.4,2.9-1.9c1.1-0.5,2.5-0.7,4-0.7c1.5,0,2.9,0.2,4,0.7
				s2.1,1.1,2.9,1.9c0.8,0.8,1.3,1.7,1.7,2.7c0.4,1,0.6,2.1,0.6,3.1c0,1-0.2,2.1-0.5,3c-0.4,1-0.9,1.9-1.6,2.7
				c-0.7,0.8-1.6,1.4-2.7,2c-1.1,0.5-2.4,0.8-3.8,0.8c0.3,0.1,0.5,0.2,0.7,0.3c0.2,0.1,0.4,0.2,0.6,0.3c0.3,0.2,0.6,0.3,1,0.4
				c0.3,0.1,0.8,0.2,1.4,0.2c0.3,0,0.6,0,0.9,0c0.2,0,0.5-0.1,0.7-0.1c0.2,0,0.4-0.1,0.6-0.2c0.2-0.1,0.4-0.1,0.6-0.2v2.5
				c-0.9,0.3-1.8,0.4-2.8,0.4c-0.7,0-1.2-0.1-1.7-0.3c-0.4-0.2-0.9-0.4-1.4-0.6c-0.4-0.2-0.7-0.3-1.1-0.5c-0.4-0.1-0.9-0.2-1.4-0.2
				c-0.4,0-0.9,0.1-1.5,0.2c-0.6,0.1-1.2,0.3-1.9,0.6v-2.1c0.3-0.2,0.5-0.3,0.8-0.4c0.3-0.1,0.6-0.2,0.9-0.3
				c0.3-0.1,0.6-0.1,0.9-0.2c0.3,0,0.5-0.1,0.7-0.1c-1.3-0.2-2.4-0.5-3.3-1c-0.9-0.5-1.7-1.2-2.4-1.9c-0.6-0.8-1.1-1.6-1.4-2.6
				c-0.3-0.9-0.5-1.9-0.5-2.9C92.1,310.8,92.2,309.7,92.6,308.7z M107.4,309.5c-0.3-0.8-0.7-1.4-1.3-2c-0.6-0.6-1.2-1-2.1-1.4
				c-0.8-0.3-1.8-0.5-2.8-0.5c-1.1,0-2,0.2-2.8,0.5c-0.8,0.3-1.5,0.8-2.1,1.4c-0.6,0.6-1,1.2-1.3,2c-0.3,0.8-0.4,1.5-0.4,2.3
				c0,0.8,0.1,1.6,0.4,2.3c0.3,0.7,0.7,1.4,1.3,2c0.6,0.6,1.2,1,2.1,1.4c0.8,0.3,1.8,0.5,2.8,0.5c1.1,0,2-0.2,2.8-0.5
				c0.8-0.3,1.5-0.8,2.1-1.4c0.6-0.6,1-1.2,1.3-2c0.3-0.7,0.4-1.5,0.4-2.3C107.8,311.1,107.6,310.3,107.4,309.5z"/>
			<path class="st0" d="M124.4,317.4c-0.3,0.7-0.7,1.2-1.2,1.6c-0.5,0.4-1.2,0.8-1.9,1c-0.7,0.2-1.5,0.3-2.4,0.3
				c-0.9,0-1.7-0.1-2.4-0.3c-0.7-0.2-1.4-0.5-1.9-1c-0.5-0.4-0.9-1-1.2-1.6c-0.3-0.7-0.5-1.4-0.5-2.3v-9.7h-1.7v-1.9h6v1.9h-1.7v9.8
				c0,0.5,0.1,1,0.3,1.4c0.2,0.4,0.5,0.7,0.8,0.9c0.3,0.2,0.7,0.4,1.1,0.5c0.4,0.1,0.8,0.2,1.3,0.2c0.5,0,0.9-0.1,1.4-0.2
				c0.4-0.1,0.8-0.3,1.1-0.5c0.3-0.2,0.6-0.5,0.7-0.9c0.2-0.4,0.3-0.8,0.3-1.4v-9.8h-1.7v-1.9h6v1.9h-1.7v9.7
				C124.8,316,124.7,316.8,124.4,317.4z"/>
			<path class="st0" d="M134.6,320.1h-6v-1.9h1.7v-12.8h-1.7v-1.9h6v1.9h-1.8v12.8h1.8V320.1z"/>
			<path class="st0" d="M148.5,316.8v3.3h-11.7v-1.9h1.7v-12.8h-1.7v-1.9h5.9v1.9H141v12.8h5.4v-1.4H148.5z"/>
			<path class="st0" d="M152.3,318.2v-12.8h-1.7v-1.9h12.7v3.6h-2v-1.6h-6.5v5h4.2v1.9h-4.2v5.9h6.5v-1.9h2v3.8h-12.7v-1.9H152.3z"
				/>
			<path class="st0" d="M171.4,318.2v1.9h-6v-1.9h1.7v-12.8h-1.7v-1.9h7.6c0.8,0,1.4,0.1,2,0.4c0.6,0.2,1.1,0.6,1.5,1
				c0.4,0.4,0.7,0.9,1,1.5c0.2,0.6,0.3,1.1,0.3,1.8c0,0.9-0.2,1.6-0.5,2.1c-0.3,0.6-0.7,1-1.1,1.3c-0.4,0.3-0.9,0.6-1.4,0.7
				c-0.5,0.1-0.9,0.2-1.2,0.2l4.1,5.6h1.7v1.9h-3.2l-5.3-7.5h-1.4v5.6H171.4z M175.2,307.2c-0.1-0.3-0.2-0.6-0.4-0.8
				c-0.2-0.3-0.5-0.5-0.8-0.6c-0.3-0.2-0.7-0.2-1.2-0.2h-3.1v5.2h3.1c1,0,1.6-0.2,2-0.7c0.4-0.5,0.6-1.1,0.6-1.8
				C175.4,307.8,175.3,307.5,175.2,307.2z"/>
			<path class="st0" d="M199.9,306c-0.7-0.3-1.6-0.4-2.8-0.4c-0.9,0-1.8,0.1-2.6,0.4c-0.8,0.3-1.5,0.7-2,1.2c-0.6,0.5-1,1.2-1.3,2
				c-0.3,0.8-0.5,1.6-0.5,2.6c0,0.9,0.2,1.8,0.5,2.5c0.3,0.8,0.8,1.4,1.4,1.9c0.6,0.5,1.2,0.9,2,1.2c0.8,0.3,1.6,0.4,2.4,0.4
				c0.8,0,1.4-0.1,1.9-0.2c0.5-0.1,1-0.2,1.4-0.4c0.4-0.2,0.8-0.4,1.1-0.6c0.3-0.2,0.6-0.4,0.9-0.7l1.4,1.9
				c-0.4,0.3-0.7,0.5-1.1,0.8c-0.4,0.3-0.9,0.5-1.4,0.7c-0.5,0.2-1.1,0.4-1.8,0.5c-0.7,0.1-1.5,0.2-2.5,0.2c-1.2,0-2.3-0.2-3.4-0.6
				c-1.1-0.4-2-1-2.8-1.8c-0.8-0.8-1.4-1.6-1.9-2.7c-0.5-1-0.7-2.2-0.7-3.4c0-1.3,0.2-2.5,0.7-3.6c0.5-1.1,1.1-1.9,1.9-2.7
				c0.8-0.7,1.7-1.3,2.8-1.7c1.1-0.4,2.2-0.6,3.4-0.6c1.2,0,2.1,0.1,2.8,0.3c0.7,0.2,1.3,0.5,1.7,0.8v-0.8h2.3v4.6h-2.3v-1.3
				C201.1,306.6,200.6,306.3,199.9,306z"/>
			<path class="st0" d="M207.8,318.2v-12.8h-1.7v-1.9h12.7v3.6h-2v-1.6h-6.5v5h4.2v1.9h-4.2v5.9h6.5v-1.9h2v3.8h-12.7v-1.9H207.8z"
				/>
			<path class="st0" d="M226.9,318.2v1.9h-6v-1.9h1.7v-12.8h-1.7v-1.9h7.6c0.8,0,1.4,0.1,2,0.4c0.6,0.2,1.1,0.6,1.5,1
				c0.4,0.4,0.7,0.9,1,1.5c0.2,0.6,0.3,1.1,0.3,1.8c0,0.9-0.2,1.6-0.5,2.1c-0.3,0.6-0.7,1-1.1,1.3c-0.4,0.3-0.9,0.6-1.4,0.7
				c-0.5,0.1-0.9,0.2-1.2,0.2l4.1,5.6h1.7v1.9h-3.2l-5.3-7.5h-1.4v5.6H226.9z M230.7,307.2c-0.1-0.3-0.2-0.6-0.4-0.8
				c-0.2-0.3-0.5-0.5-0.8-0.6c-0.3-0.2-0.7-0.2-1.2-0.2h-3.1v5.2h3.1c1,0,1.6-0.2,2-0.7c0.4-0.5,0.6-1.1,0.6-1.8
				C230.8,307.8,230.8,307.5,230.7,307.2z"/>
			<path class="st0" d="M238.8,318.2v-12.8h-1.7v-1.9h12.7v3.6h-2v-1.6h-6.5v5h4.2v1.9h-4.2v5.9h6.5v-1.9h2v3.8h-12.7v-1.9H238.8z"
				/>
			<path class="st0" d="M272.7,320.1h-5.9v-1.9h1.6v-10.8l-5.4,12.7h-1.6l-5.4-12.7v10.8h1.7v1.9h-5.9v-1.9h1.6v-12.8h-1.6v-1.9h5
				l5.4,12.5l5.4-12.5h5.1v1.9H271v12.8h1.7V320.1z"/>
			<path class="st0" d="M275.1,308.7c0.4-1,1-1.9,1.7-2.7c0.8-0.8,1.7-1.4,2.9-1.9c1.1-0.5,2.5-0.7,4-0.7c1.5,0,2.9,0.2,4,0.7
				c1.1,0.5,2.1,1.1,2.9,1.9c0.8,0.8,1.3,1.7,1.7,2.7c0.4,1,0.6,2.1,0.6,3.1c0,1.1-0.2,2.1-0.6,3.1c-0.4,1-1,1.9-1.7,2.7
				c-0.8,0.8-1.7,1.4-2.9,1.9c-1.1,0.5-2.5,0.7-4,0.7c-1.5,0-2.9-0.2-4-0.7c-1.1-0.5-2.1-1.1-2.9-1.9c-0.8-0.8-1.3-1.7-1.7-2.7
				c-0.4-1-0.6-2.1-0.6-3.1C274.5,310.8,274.7,309.7,275.1,308.7z M289.8,309.5c-0.3-0.8-0.7-1.4-1.3-2c-0.6-0.6-1.2-1-2.1-1.4
				c-0.8-0.3-1.8-0.5-2.8-0.5s-2,0.2-2.8,0.5c-0.8,0.3-1.5,0.8-2.1,1.4c-0.6,0.6-1,1.2-1.3,2c-0.3,0.8-0.4,1.5-0.4,2.3
				c0,0.8,0.1,1.6,0.4,2.3c0.3,0.7,0.7,1.4,1.3,2c0.6,0.6,1.2,1,2.1,1.4c0.8,0.3,1.8,0.5,2.8,0.5s2-0.2,2.8-0.5
				c0.8-0.3,1.5-0.8,2.1-1.4c0.6-0.6,1-1.2,1.3-2c0.3-0.7,0.4-1.5,0.4-2.3C290.3,311.1,290.1,310.3,289.8,309.5z"/>
			<path class="st0" d="M293.7,320.1v-1.9h1.6v-12.8h-1.6v-1.9h4.1l9.4,12.2v-10.3h-1.7v-1.9h5.9v1.9h-1.6v14.7h-2.5l-9.4-12.4v10.5
				h1.7v1.9H293.7z"/>
			<path class="st0" d="M319.9,320.1h-6v-1.9h1.7v-12.8h-1.7v-1.9h6v1.9h-1.8v12.8h1.8V320.1z"/>
			<path class="st0" d="M337.4,320.1h-5.3v-1.9h1.6l-0.9-2.6h-6.4l-0.9,2.6h1.6v1.9h-5.3v-1.9h1.3l4.4-12.8h-1.7v-1.9h7.4v1.9h-1.7
				l4.4,12.8h1.3V320.1z M327.1,313.5h5l-2.5-7.2L327.1,313.5z"/>
		</g>
	</g>
</g>
</svg>
